<svg xmlns="http://www.w3.org/2000/svg" width="800" height="450" viewBox="0 0 800 450"><rect width="100%" height="100%" fill="#DDDDDD"/><path fill="#999999" d="M178.485 222.68q0 2.3-.77 4.23t-2.16 3.32-3.35 2.16-4.35.77h-7.99v-20.97h7.99q2.39 0 4.35.78 1.96.77 3.35 2.16 1.39 1.38 2.16 3.31t.77 4.24m-4.01 0q0-1.73-.45-3.1-.46-1.37-1.32-2.32t-2.09-1.46q-1.23-.5-2.76-.5h-4.08v14.76h4.08q1.53 0 2.76-.51t2.09-1.46 1.32-2.32q.45-1.37.45-3.09m16.11-4.4h3.59v14.88h-2.19q-.71 0-.9-.65l-.25-1.19q-.91.93-2.02 1.5-1.1.57-2.59.57-1.22 0-2.15-.41-.94-.41-1.58-1.17-.64-.75-.96-1.79-.33-1.04-.33-2.28v-9.46h3.58v9.46q0 1.36.63 2.11.64.74 1.9.74.92 0 1.74-.41.81-.41 1.53-1.14zm7.12-6.67h3.58v12.34h.67q.36 0 .57-.09.21-.1.43-.39l3.7-4.56q.23-.31.51-.47.29-.16.74-.16h3.27l-4.62 5.53q-.49.65-1.07 1 .3.22.54.51t.46.62l4.95 7.22h-3.23q-.42 0-.72-.14-.31-.14-.51-.5l-3.8-5.64q-.2-.33-.42-.43-.22-.11-.65-.11h-.82v6.82h-3.58zm24.74 6.67h3.58v14.88h-2.19q-.71 0-.9-.65l-.24-1.19q-.92.93-2.02 1.5t-2.59.57q-1.22 0-2.16-.41-.93-.41-1.57-1.17-.64-.75-.96-1.79-.33-1.04-.33-2.28v-9.46h3.58v9.46q0 1.36.63 2.11.63.74 1.89.74.93 0 1.74-.41.82-.41 1.54-1.14zm10.22.66.25 1.17q.45-.45.95-.83.5-.39 1.06-.66.56-.26 1.19-.42.64-.15 1.4-.15 1.21 0 2.16.41.94.42 1.57 1.16.63.75.96 1.79.32 1.03.32 2.28v9.47h-3.58v-9.47q0-1.36-.62-2.11-.63-.75-1.9-.75-.93 0-1.74.43-.81.42-1.54 1.14v10.76h-3.58v-14.88h2.19q.7 0 .91.66m18.69 6.42q.67 0 1.16-.18.5-.18.82-.5.33-.32.5-.77.16-.45.16-.99 0-1.1-.66-1.74-.66-.65-1.98-.65t-1.98.65q-.66.64-.66 1.74 0 .53.17.97.17.45.49.78.33.33.83.51t1.15.18m4.05 8.47q0-.44-.26-.71-.26-.28-.71-.43t-1.05-.23q-.61-.07-1.28-.1-.67-.04-1.39-.07t-1.4-.12q-.6.34-.97.79t-.37 1.04q0 .39.2.73t.62.59q.43.25 1.11.38.68.14 1.67.14 1 0 1.73-.15.72-.15 1.19-.42t.69-.64.22-.8m-.71-15.04h4.28v1.33q0 .64-.77.79l-1.34.24q.31.77.31 1.69 0 1.1-.44 1.99-.45.89-1.23 1.51-.78.63-1.85.97-1.06.34-2.3.34-.43 0-.84-.04-.4-.05-.8-.12-.69.42-.69.94 0 .45.41.66.42.21 1.1.3t1.55.11 1.78.09q.92.08 1.79.26t1.55.57 1.09 1.07q.41.67.41 1.73 0 .98-.48 1.91-.49.93-1.41 1.66-.92.72-2.26 1.16t-3.05.44q-1.68 0-2.93-.32-1.25-.33-2.07-.87-.83-.55-1.24-1.26-.4-.71-.4-1.47 0-1.05.63-1.75.63-.71 1.73-1.13-.59-.3-.94-.81t-.35-1.33q0-.34.12-.69.13-.36.37-.7.24-.35.6-.66.36-.32.85-.56-1.13-.61-1.77-1.63-.65-1.01-.65-2.37 0-1.11.44-2 .45-.89 1.24-1.52t1.87-.96q1.08-.34 2.35-.34.96 0 1.8.2.84.19 1.54.57m14.4 10.53v-2.51q-1.55.07-2.61.27-1.06.19-1.7.5-.64.3-.91.71-.28.4-.28.88 0 .94.56 1.35t1.46.41q1.1 0 1.9-.4.81-.4 1.58-1.21m-7.57-7.82-.64-1.14q2.57-2.35 6.18-2.35 1.3 0 2.33.43 1.03.42 1.74 1.18.71.77 1.08 1.82.37 1.06.37 2.32v9.4h-1.62q-.51 0-.79-.15-.27-.15-.43-.62l-.32-1.07q-.57.51-1.1.89-.54.38-1.12.65-.58.26-1.24.39-.66.14-1.46.14-.94 0-1.74-.25-.79-.26-1.37-.76-.58-.51-.9-1.26-.32-.76-.32-1.76 0-.56.19-1.12t.61-1.07q.43-.51 1.11-.96t1.68-.78q.99-.33 2.31-.54t3.02-.26v-.87q0-1.49-.64-2.21t-1.84-.72q-.87 0-1.45.21-.57.2-1 .45-.44.26-.79.46-.36.2-.79.2-.38 0-.64-.19-.26-.2-.42-.46m17.53-2.56.24 1.17q.45-.45.95-.83.5-.39 1.06-.66.56-.26 1.2-.42.64-.15 1.39-.15 1.22 0 2.16.41.94.42 1.58 1.16.63.75.95 1.79.33 1.03.33 2.28v9.47h-3.58v-9.47q0-1.36-.63-2.11-.62-.75-1.9-.75-.92 0-1.74.43-.81.42-1.53 1.14v10.76h-3.58v-14.88h2.18q.7 0 .92.66m24.76 11.17h3.95q1.09 0 1.83-.26.73-.26 1.18-.69.44-.44.63-1.02.2-.58.2-1.23 0-.68-.22-1.22-.21-.55-.68-.93-.46-.39-1.19-.59-.74-.2-1.77-.2h-3.93zm3.32-14.9h-3.32v6.06h3.11q2 0 3.02-.73 1.02-.72 1.02-2.3 0-1.64-.93-2.34-.92-.69-2.9-.69m-7.22-3.02h7.22q2.06 0 3.53.39 1.46.4 2.4 1.12.93.73 1.37 1.76.43 1.02.43 2.32 0 .73-.21 1.41-.22.67-.68 1.26t-1.16 1.07q-.7.47-1.67.81 4.32.97 4.32 4.67 0 1.33-.51 2.46t-1.48 1.95-2.39 1.29q-1.42.46-3.25.46h-7.92zm26.39 17.13v-2.51q-1.55.07-2.61.27-1.05.19-1.69.5-.64.3-.92.71-.27.4-.27.88 0 .94.56 1.35.55.41 1.45.41 1.11 0 1.91-.4.81-.4 1.57-1.21m-7.57-7.82-.63-1.14q2.56-2.35 6.17-2.35 1.31 0 2.34.43 1.03.42 1.74 1.18.71.77 1.08 1.82.37 1.06.37 2.32v9.4h-1.63q-.5 0-.78-.15-.27-.15-.43-.62l-.32-1.07q-.57.51-1.1.89-.54.38-1.12.65-.58.26-1.24.39-.66.14-1.46.14-.94 0-1.74-.25-.8-.26-1.38-.76-.58-.51-.89-1.26-.32-.76-.32-1.76 0-.56.18-1.12.19-.56.62-1.07t1.11-.96 1.68-.78q.99-.33 2.31-.54t3.01-.26v-.87q0-1.49-.63-2.21-.64-.72-1.85-.72-.87 0-1.44.21-.57.2-1.01.45-.43.26-.79.46-.35.2-.79.2-.37 0-.63-.19-.27-.2-.43-.46m19.87 3.86q.67 0 1.16-.18t.82-.5.49-.77q.17-.45.17-.99 0-1.1-.66-1.74-.66-.65-1.98-.65t-1.98.65q-.66.64-.66 1.74 0 .53.17.97.16.45.49.78t.83.51 1.15.18m4.05 8.47q0-.44-.27-.71-.26-.28-.71-.43t-1.05-.23q-.6-.07-1.27-.1-.68-.04-1.4-.07-.71-.03-1.39-.12-.6.34-.97.79t-.37 1.04q0 .39.2.73.19.34.62.59t1.11.38q.68.14 1.67.14 1 0 1.72-.15.73-.15 1.2-.42t.69-.64.22-.8m-.72-15.04h4.28v1.33q0 .64-.77.79l-1.33.24q.3.77.3 1.69 0 1.1-.44 1.99t-1.22 1.51q-.79.63-1.85.97-1.07.34-2.3.34-.44 0-.84-.04-.41-.05-.8-.12-.69.42-.69.94 0 .45.41.66t1.09.3 1.55.11 1.79.09q.91.08 1.78.26t1.55.57 1.1 1.07q.41.67.41 1.73 0 .98-.48 1.91-.49.93-1.41 1.66-.92.72-2.26 1.16t-3.06.44q-1.68 0-2.92-.32-1.25-.33-2.08-.87-.82-.55-1.23-1.26t-.41-1.47q0-1.05.63-1.75.64-.71 1.74-1.13-.6-.3-.95-.81-.34-.51-.34-1.33 0-.34.12-.69.12-.36.36-.7.24-.35.6-.66.37-.32.86-.56-1.13-.61-1.78-1.63-.64-1.01-.64-2.37 0-1.11.44-2t1.23-1.52 1.87-.96q1.08-.34 2.36-.34.96 0 1.8.2.84.19 1.53.57m6.66-.51h3.6v14.88h-3.6zm4.09-4.33q0 .46-.19.87-.19.4-.5.71-.31.3-.73.48-.42.19-.9.19-.46 0-.88-.19-.41-.18-.72-.48-.3-.31-.48-.71-.18-.41-.18-.87 0-.48.18-.9t.48-.73q.31-.3.72-.48.42-.18.88-.18.48 0 .9.18t.73.48q.31.31.5.73t.19.9m22.91.21-.97 1.85q-.18.3-.37.44-.2.14-.49.14-.3 0-.66-.23-.35-.22-.85-.5-.49-.27-1.15-.5-.66-.22-1.56-.22-.81 0-1.42.19-.61.2-1.02.55-.41.34-.62.83-.2.49-.2 1.07 0 .73.41 1.23.42.49 1.1.84t1.55.62q.87.28 1.78.59.92.31 1.79.72.87.42 1.55 1.05t1.09 1.54q.42.92.42 2.22 0 1.42-.49 2.66t-1.42 2.16q-.94.92-2.28 1.45-1.35.53-3.09.53-1 0-1.97-.19-.98-.2-1.87-.56t-1.67-.87q-.79-.51-1.39-1.13l1.14-1.87q.15-.21.38-.34.23-.14.49-.14.36 0 .78.3.42.29 1 .65.58.37 1.36.66.78.3 1.86.3 1.67 0 2.58-.79.92-.79.92-2.27 0-.82-.42-1.35-.41-.52-1.09-.87-.68-.36-1.55-.61-.87-.24-1.77-.53t-1.77-.7q-.87-.4-1.55-1.06-.68-.65-1.1-1.63-.41-.98-.41-2.41 0-1.15.46-2.23.45-1.09 1.32-1.93t2.15-1.35 2.93-.51q1.86 0 3.42.58 1.57.58 2.67 1.62m3.32 4.12h3.6v14.88h-3.6zm4.09-4.33q0 .46-.19.87-.19.4-.5.71-.31.3-.73.48-.42.19-.9.19-.47 0-.88-.19-.41-.18-.72-.48-.3-.31-.48-.71-.18-.41-.18-.87 0-.48.18-.9t.48-.73q.31-.3.72-.48t.88-.18q.48 0 .9.18t.73.48q.31.31.5.73t.19.9m13.05 5.94-.81 1.29q-.15.23-.31.33-.16.09-.4.09-.26 0-.56-.14-.3-.15-.69-.33t-.89-.32q-.5-.15-1.18-.15-1.06 0-1.66.45-.61.45-.61 1.17 0 .48.32.81.31.33.82.57.52.25 1.17.44.65.2 1.33.43.67.23 1.32.53.66.3 1.17.76.51.45.83 1.09.31.64.31 1.54 0 1.07-.39 1.98-.38.9-1.13 1.56-.76.66-1.87 1.03t-2.56.37q-.77 0-1.5-.14-.73-.13-1.4-.38-.68-.25-1.25-.58t-1.01-.72l.83-1.37q.16-.24.37-.37.22-.14.56-.14.33 0 .63.19.29.19.69.41.39.22.92.4.53.19 1.34.19.64 0 1.09-.15.46-.15.76-.4.29-.24.43-.57t.14-.67q0-.53-.31-.86t-.83-.58q-.51-.25-1.17-.44-.66-.2-1.35-.43t-1.35-.54q-.66-.32-1.18-.79-.51-.48-.82-1.18-.31-.69-.31-1.68 0-.91.36-1.74t1.06-1.44q.71-.62 1.76-.99t2.43-.37q1.53 0 2.8.51 1.26.51 2.1 1.33m21.37-1.61h2.73l-4.73 14.88h-2.87q-.49 0-.68-.64l-2.67-8.6q-.13-.43-.24-.86t-.18-.86q-.09.43-.2.88-.1.44-.24.87l-2.71 8.57q-.17.64-.77.64h-2.75l-4.71-14.88h2.85q.4 0 .67.19.28.19.36.48l2.13 7.95q.16.65.29 1.27.12.63.21 1.25.16-.62.34-1.25.18-.62.38-1.27l2.47-7.98q.08-.29.34-.48.25-.19.61-.19h1.59q.37 0 .64.19t.36.48l2.39 7.98q.19.65.35 1.28.17.63.33 1.25.19-1.23.54-2.53l2.19-7.95q.1-.29.36-.48t.62-.19m12.62 11.04v-2.51q-1.55.07-2.61.27-1.06.19-1.7.5-.64.3-.91.71-.28.4-.28.88 0 .94.56 1.35t1.46.41q1.1 0 1.9-.4.81-.4 1.58-1.21m-7.57-7.82-.64-1.14q2.57-2.35 6.18-2.35 1.3 0 2.33.43 1.03.42 1.74 1.18.71.77 1.08 1.82.37 1.06.37 2.32v9.4h-1.62q-.51 0-.79-.15-.27-.15-.43-.62l-.32-1.07q-.57.51-1.1.89-.54.38-1.12.65-.58.26-1.24.39-.66.14-1.46.14-.94 0-1.74-.25-.79-.26-1.37-.76-.58-.51-.9-1.26-.32-.76-.32-1.76 0-.56.19-1.12t.61-1.07q.43-.51 1.11-.96t1.68-.78q.99-.33 2.31-.54t3.02-.26v-.87q0-1.49-.64-2.21t-1.84-.72q-.87 0-1.45.21-.57.2-1 .45-.44.26-.79.46-.36.2-.79.2-.38 0-.64-.19-.26-.2-.42-.46m25.94-9.31v8.79h.91q.55 0 .92-.15.36-.15.62-.49l5.78-7.32q.37-.46.77-.65.39-.18 1-.18h3.37l-7.06 8.72q-.63.79-1.29 1.13.47.17.86.48.38.32.73.82l7.28 9.82h-3.44q-.69 0-1.03-.2-.34-.19-.58-.57l-5.93-7.74q-.27-.39-.64-.55-.36-.16-1.04-.16h-1.23v9.22h-3.9v-20.97zm24.65 6.09h3.58v14.88h-2.19q-.71 0-.9-.65l-.25-1.19q-.91.93-2.01 1.5t-2.6.57q-1.21 0-2.15-.41-.93-.41-1.57-1.17-.64-.75-.97-1.79-.32-1.04-.32-2.28v-9.46h3.58v9.46q0 1.36.63 2.11.63.74 1.89.74.93 0 1.74-.41t1.54-1.14zm10.28.9.22 1.68q.69-1.33 1.65-2.09t2.26-.76q1.03 0 1.65.45l-.23 2.68q-.07.26-.21.37t-.37.11q-.22 0-.64-.07-.43-.08-.84-.08-.59 0-1.06.18-.46.17-.83.5-.37.32-.65.79-.28.46-.53 1.06v9.16h-3.58v-14.88h2.1q.55 0 .77.2.22.19.29.7m15.51 10.14v-2.51q-1.55.07-2.61.27-1.05.19-1.69.5-.64.3-.92.71-.27.4-.27.88 0 .94.56 1.35.55.41 1.45.41 1.11 0 1.91-.4.81-.4 1.57-1.21m-7.57-7.82-.63-1.14q2.56-2.35 6.17-2.35 1.31 0 2.34.43 1.03.42 1.74 1.18.71.77 1.08 1.82.37 1.06.37 2.32v9.4h-1.63q-.5 0-.78-.15-.27-.15-.43-.62l-.32-1.07q-.57.51-1.1.89-.54.38-1.12.65-.58.26-1.24.39-.66.14-1.46.14-.94 0-1.74-.25-.8-.26-1.38-.76-.58-.51-.89-1.26-.32-.76-.32-1.76 0-.56.18-1.12.19-.56.62-1.07t1.11-.96 1.67-.78q1-.33 2.32-.54t3.01-.26v-.87q0-1.49-.63-2.21-.64-.72-1.85-.72-.87 0-1.44.21-.57.2-1.01.45-.43.26-.79.46-.35.2-.79.2-.37 0-.63-.19-.27-.2-.43-.46m17.54-2.56.24 1.17q.45-.45.95-.83.5-.39 1.06-.66.56-.26 1.2-.42.63-.15 1.39-.15 1.22 0 2.16.41.94.42 1.57 1.16.63.75.96 1.79.33 1.03.33 2.28v9.47h-3.59v-9.47q0-1.36-.62-2.11t-1.9-.75q-.93 0-1.74.43-.81.42-1.54 1.14v10.76h-3.58v-14.88h2.19q.7 0 .92.66m18.69 6.42q.66 0 1.16-.18.49-.18.82-.5.32-.32.49-.77.16-.45.16-.99 0-1.1-.65-1.74-.66-.65-1.98-.65t-1.98.65q-.66.64-.66 1.74 0 .53.16.97.17.45.5.78.32.33.82.51t1.16.18m4.04 8.47q0-.44-.26-.71-.26-.28-.71-.43t-1.05-.23q-.6-.07-1.28-.1-.67-.04-1.39-.07t-1.4-.12q-.59.34-.96.79t-.37 1.04q0 .39.19.73.2.34.63.59.42.25 1.11.38.68.14 1.66.14 1 0 1.73-.15.72-.15 1.2-.42.47-.27.68-.64.22-.37.22-.8m-.71-15.04h4.28v1.33q0 .64-.77.79l-1.33.24q.3.77.3 1.69 0 1.1-.44 1.99t-1.23 1.51q-.78.63-1.85.97-1.06.34-2.29.34-.44 0-.85-.04-.4-.05-.79-.12-.7.42-.7.94 0 .45.41.66.42.21 1.1.3t1.55.11 1.78.09q.92.08 1.79.26t1.55.57 1.09 1.07q.42.67.42 1.73 0 .98-.49 1.91-.48.93-1.41 1.66-.92.72-2.26 1.16t-3.05.44q-1.68 0-2.93-.32-1.25-.33-2.07-.87-.83-.55-1.23-1.26-.41-.71-.41-1.47 0-1.05.63-1.75.63-.71 1.73-1.13-.59-.3-.94-.81t-.35-1.33q0-.34.13-.69.12-.36.36-.7.24-.35.6-.66.36-.32.86-.56-1.14-.61-1.78-1.63-.65-1.01-.65-2.37 0-1.11.45-2 .44-.89 1.23-1.52t1.87-.96q1.08-.34 2.36-.34.95 0 1.79.2.84.19 1.54.57m33.95-6.6h2.94v20.97h-3.44v-13.54q0-.82.09-1.76l-6.34 11.91q-.45.85-1.37.85h-.56q-.92 0-1.37-.85l-6.41-11.95q.04.48.07.94.03.47.03.86v13.54h-3.44v-20.97h2.95q.26 0 .45.02.18.01.34.07.15.06.27.19.13.13.24.35l6.28 11.64q.25.46.46.96.21.49.41 1.01.2-.53.42-1.03.22-.51.46-.97l6.2-11.61q.11-.22.24-.35t.28-.19q.16-.06.35-.07.18-.02.45-.02m14.9 17.13v-2.51q-1.55.07-2.61.27-1.06.19-1.7.5-.63.3-.91.71-.27.4-.27.88 0 .94.55 1.35.56.41 1.46.41 1.1 0 1.91-.4.8-.4 1.57-1.21m-7.57-7.82-.64-1.14q2.57-2.35 6.18-2.35 1.31 0 2.34.43 1.03.42 1.74 1.18.71.77 1.08 1.82.37 1.06.37 2.32v9.4h-1.63q-.51 0-.78-.15-.28-.15-.44-.62l-.32-1.07q-.56.51-1.1.89-.53.38-1.11.65-.58.26-1.24.39-.66.14-1.46.14-.94 0-1.74-.25-.8-.26-1.38-.76-.58-.51-.9-1.26-.32-.76-.32-1.76 0-.56.19-1.12t.62-1.07 1.11-.96 1.67-.78q1-.33 2.32-.54 1.31-.21 3.01-.26v-.87q0-1.49-.64-2.21-.63-.72-1.84-.72-.87 0-1.44.21-.57.2-1.01.45-.43.26-.79.46-.35.2-.79.2-.38 0-.64-.19-.26-.2-.42-.46m18.01 11.66h-3.58v-14.88h2.19q.7 0 .91.66l.23 1.1q.4-.44.82-.8.43-.36.92-.62.48-.26 1.04-.42.56-.15 1.23-.15 1.4 0 2.31.76t1.36 2.02q.34-.73.87-1.26.52-.53 1.14-.87.62-.33 1.33-.49.7-.16 1.41-.16 1.23 0 2.19.38.96.37 1.61 1.1.65.72.99 1.77.34 1.04.34 2.39v9.47h-3.58v-9.47q0-1.42-.62-2.14t-1.83-.72q-.55 0-1.02.19t-.83.55q-.35.35-.55.89-.21.54-.21 1.23v9.47h-3.59v-9.47q0-1.49-.61-2.17-.6-.69-1.76-.69-.78 0-1.45.39-.68.38-1.26 1.05zm24.29-10.53v6.67q.61.74 1.33 1.05.71.3 1.55.3.82 0 1.47-.3.65-.31 1.11-.93.45-.62.7-1.57t.25-2.24q0-1.31-.21-2.22-.21-.9-.6-1.47-.4-.56-.95-.82-.56-.27-1.27-.27-1.12 0-1.9.48-.79.47-1.48 1.32m-.48-3.69.29 1.37q.91-1.03 2.07-1.66 1.16-.64 2.73-.64 1.22 0 2.23.5 1 .51 1.74 1.48.73.96 1.13 2.37.4 1.42.4 3.25 0 1.66-.45 3.08t-1.29 2.47q-.83 1.04-2.01 1.63t-2.65.59q-1.25 0-2.13-.39-.89-.38-1.58-1.06v6.09h-3.58v-19.74h2.19q.69 0 .91.66m22.61-.66h3.58v14.88h-2.19q-.71 0-.9-.65l-.25-1.19q-.91.93-2.01 1.5-1.11.57-2.6.57-1.22 0-2.15-.41-.94-.41-1.58-1.17-.63-.75-.96-1.79t-.33-2.28v-9.46h3.59v9.46q0 1.36.63 2.11.63.74 1.89.74.93 0 1.74-.41t1.54-1.14z"/></svg>