<svg xmlns="http://www.w3.org/2000/svg" width="800" height="450" viewBox="0 0 800 450"><rect width="100%" height="100%" fill="#DDDDDD"/><path fill="#999999" d="M164.355 213.98v9.39h.98q.59 0 .97-.16.39-.17.67-.52l6.19-7.83q.38-.5.81-.69t1.08-.19h3.59l-7.55 9.31q-.66.86-1.38 1.21.52.19.93.52t.78.88l7.78 10.49h-3.67q-.75 0-1.11-.21-.37-.21-.61-.61l-6.34-8.28q-.3-.42-.69-.59-.38-.17-1.11-.17h-1.32v9.86h-4.17v-22.41zm19.5 12.63h7.22q0-.74-.21-1.4t-.62-1.16q-.42-.49-1.07-.78-.64-.29-1.49-.29-1.66 0-2.61.95-.96.94-1.22 2.68m9.77 2.31h-9.85q.1 1.22.44 2.11.34.9.9 1.48.55.58 1.32.87.77.28 1.7.28t1.6-.21q.68-.22 1.18-.49.5-.26.88-.48.38-.21.74-.21.48 0 .71.35l1.1 1.4q-.63.74-1.42 1.25-.79.5-1.65.8t-1.75.43q-.9.12-1.73.12-1.66 0-3.09-.55-1.42-.55-2.48-1.63-1.05-1.07-1.66-2.66-.6-1.59-.6-3.68 0-1.63.53-3.06.52-1.44 1.51-2.5.98-1.06 2.4-1.68t3.2-.62q1.5 0 2.78.48 1.27.48 2.18 1.4.92.92 1.43 2.27.52 1.34.52 3.06 0 .86-.18 1.17-.19.3-.71.3m14.33-6.71-.87 1.38q-.15.25-.32.35t-.43.1q-.28 0-.6-.16-.32-.15-.74-.35-.42-.19-.95-.35-.54-.15-1.26-.15-1.14 0-1.78.48t-.64 1.25q0 .52.33.87.33.34.88.61.55.26 1.25.47t1.42.46 1.42.56q.7.32 1.25.81t.88 1.17.33 1.64q0 1.15-.41 2.12t-1.21 1.67q-.81.71-2 1.1-1.18.4-2.73.4-.82 0-1.61-.15-.78-.15-1.5-.41t-1.33-.62-1.08-.78l.88-1.45q.17-.27.41-.4.23-.14.59-.14.35 0 .67.2t.74.43q.41.23.98.44.57.2 1.43.2.69 0 1.17-.17.49-.16.81-.42.32-.27.47-.61.14-.35.14-.73 0-.55-.33-.91t-.88-.62-1.26-.47q-.7-.21-1.44-.46t-1.44-.58q-.71-.33-1.26-.85-.55-.51-.88-1.25-.33-.75-.33-1.8 0-.98.38-1.86.39-.88 1.14-1.54t1.88-1.06q1.12-.39 2.59-.39 1.65 0 3 .54 1.34.54 2.24 1.43m6.08 4.4h7.22q0-.74-.21-1.4t-.63-1.16q-.41-.49-1.06-.78-.64-.29-1.49-.29-1.66 0-2.61.95-.96.94-1.22 2.68m9.76 2.31h-9.84q.09 1.22.44 2.11.34.9.89 1.48.56.58 1.33.87.77.28 1.7.28t1.6-.21q.68-.22 1.18-.49.5-.26.88-.48.38-.21.74-.21.48 0 .71.35l1.1 1.4q-.63.74-1.42 1.25-.79.5-1.65.8t-1.76.43q-.89.12-1.72.12-1.66 0-3.09-.55-1.42-.55-2.48-1.63-1.05-1.07-1.66-2.66-.6-1.59-.6-3.68 0-1.63.53-3.06.52-1.44 1.51-2.5.98-1.06 2.4-1.68t3.2-.62q1.5 0 2.77.48 1.28.48 2.19 1.4t1.43 2.27q.52 1.34.52 3.06 0 .86-.18 1.17-.19.3-.72.3m9.07 7.72q-2.08 0-3.18-1.17-1.11-1.17-1.11-3.23v-8.89h-1.63q-.31 0-.53-.2-.21-.2-.21-.6v-1.52l2.55-.42.81-4.34q.08-.31.29-.48.22-.17.56-.17h1.99v5.01h4.24v2.72h-4.24v8.62q0 .75.36 1.17.36.41 1 .41.36 0 .6-.08.24-.09.42-.18.17-.09.31-.18.14-.08.28-.08.17 0 .28.08.11.09.23.26l1.15 1.86q-.84.7-1.92 1.05-1.09.36-2.25.36m14.63-4.36v-2.68q-1.66.08-2.79.29t-1.81.53q-.68.33-.98.76-.29.44-.29.95 0 1.01.6 1.44.59.43 1.55.43 1.18 0 2.04-.42.86-.43 1.68-1.3m-8.09-8.35-.68-1.23q2.74-2.51 6.6-2.51 1.4 0 2.5.46t1.86 1.27 1.15 1.95q.4 1.13.4 2.48v10.04h-1.74q-.54 0-.83-.16-.3-.17-.47-.66l-.34-1.15q-.6.54-1.18.95-.57.42-1.19.69-.62.28-1.33.43-.7.15-1.55.15-1.01 0-1.86-.27-.86-.27-1.48-.82-.62-.54-.96-1.35-.34-.8-.34-1.87 0-.61.2-1.2.2-.6.66-1.14t1.19-1.02q.73-.49 1.79-.84 1.06-.36 2.47-.58 1.41-.23 3.22-.27v-.93q0-1.6-.68-2.37t-1.97-.77q-.93 0-1.54.22t-1.08.49q-.46.27-.84.49t-.85.22q-.4 0-.68-.21t-.45-.49m18.8-2.48.24 1.8q.74-1.43 1.76-2.24 1.03-.82 2.42-.82 1.1 0 1.77.48l-.25 2.87q-.08.28-.22.4-.15.11-.4.11-.23 0-.69-.08-.46-.07-.89-.07-.64 0-1.13.18-.5.19-.89.54-.4.35-.7.84-.3.5-.57 1.13v9.8h-3.83v-15.9h2.25q.59 0 .82.21.24.21.31.75m16.59 10.83v-2.68q-1.66.08-2.79.29t-1.81.53q-.69.33-.98.76-.3.44-.3.95 0 1.01.6 1.44t1.56.43q1.18 0 2.04-.42.86-.43 1.68-1.3m-8.09-8.35-.68-1.23q2.74-2.51 6.6-2.51 1.39 0 2.49.46t1.86 1.27 1.16 1.95q.39 1.13.39 2.48v10.04h-1.73q-.54 0-.84-.16-.29-.17-.46-.66l-.34-1.15q-.61.54-1.18.95-.58.42-1.2.69-.62.28-1.32.43-.71.15-1.56.15-1.01 0-1.86-.27t-1.47-.82q-.62-.54-.96-1.35-.34-.8-.34-1.87 0-.61.2-1.2.2-.6.66-1.14.45-.54 1.18-1.02.73-.49 1.79-.84 1.06-.36 2.47-.58 1.42-.23 3.23-.27v-.93q0-1.6-.68-2.37-.69-.77-1.97-.77-.93 0-1.54.22-.62.22-1.08.49l-.85.49q-.38.22-.84.22-.4 0-.68-.21t-.45-.49m23.82 8.35v-2.68q-1.66.08-2.79.29t-1.81.53q-.68.33-.98.76-.29.44-.29.95 0 1.01.59 1.44.6.43 1.56.43 1.18 0 2.04-.42.86-.43 1.68-1.3m-8.09-8.35-.68-1.23q2.74-2.51 6.6-2.51 1.4 0 2.5.46t1.86 1.27 1.15 1.95q.4 1.13.4 2.48v10.04h-1.74q-.54 0-.84-.16-.29-.17-.46-.66l-.34-1.15q-.61.54-1.18.95-.57.42-1.19.69-.62.28-1.33.43-.7.15-1.56.15-1 0-1.86-.27-.85-.27-1.47-.82-.62-.54-.96-1.35-.34-.8-.34-1.87 0-.61.2-1.2.2-.6.66-1.14t1.18-1.02q.73-.49 1.79-.84 1.07-.36 2.48-.58 1.41-.23 3.22-.27v-.93q0-1.6-.68-2.37t-1.97-.77q-.93 0-1.54.22t-1.08.49q-.46.27-.84.49t-.85.22q-.4 0-.68-.21t-.45-.49m18.74-2.75.26 1.26q.48-.48 1.02-.89.53-.41 1.13-.7t1.28-.45 1.49-.16q1.3 0 2.31.44 1 .44 1.68 1.24.67.8 1.02 1.91t.35 2.44v10.12h-3.83v-10.12q0-1.46-.67-2.26-.66-.8-2.03-.8-.99 0-1.86.45-.86.45-1.64 1.23v11.5h-3.83v-15.9h2.34q.75 0 .98.69m33.34 3.97h7.44v9.07q-1.7 1.26-3.63 1.84t-4.14.58q-2.74 0-4.96-.85-2.23-.86-3.8-2.38t-2.43-3.62q-.85-2.11-.85-4.61 0-2.52.82-4.63t2.34-3.63q1.51-1.52 3.66-2.35 2.16-.84 4.84-.84 1.36 0 2.55.22 1.18.21 2.2.59 1.01.38 1.85.92.84.55 1.53 1.2l-1.19 1.89q-.28.45-.73.55t-.97-.23q-.52-.29-1.03-.58-.51-.3-1.14-.52-.62-.21-1.41-.35-.78-.14-1.8-.14-1.66 0-3 .56-1.34.55-2.29 1.59-.94 1.04-1.45 2.5-.52 1.46-.52 3.25 0 1.93.55 3.44t1.55 2.55q1 1.05 2.41 1.6t3.15.55q1.24 0 2.22-.26.97-.27 1.9-.72v-4.06h-2.82q-.4 0-.63-.22-.22-.23-.22-.55zm13.89 1.46h7.22q0-.74-.21-1.4t-.63-1.16q-.41-.49-1.06-.78-.64-.29-1.49-.29-1.66 0-2.62.95-.95.94-1.21 2.68m9.76 2.31h-9.84q.09 1.22.43 2.11.35.9.9 1.48.56.58 1.33.87.77.28 1.7.28t1.6-.21q.67-.22 1.18-.49.5-.26.88-.48.38-.21.74-.21.48 0 .71.35l1.1 1.4q-.63.74-1.42 1.25-.79.5-1.66.8-.86.3-1.75.43-.89.12-1.72.12-1.66 0-3.09-.55t-2.48-1.63q-1.05-1.07-1.66-2.66-.6-1.59-.6-3.68 0-1.63.52-3.06.53-1.44 1.52-2.5.98-1.06 2.4-1.68t3.2-.62q1.5 0 2.77.48t2.19 1.4q.91.92 1.43 2.27.52 1.34.52 3.06 0 .86-.18 1.17-.19.3-.72.3m7.09-7.74.26 1.26q.48-.48 1.02-.89.53-.41 1.13-.7.59-.29 1.28-.45.68-.16 1.48-.16 1.31 0 2.31.44 1.01.44 1.68 1.24.68.8 1.03 1.91t.35 2.44v10.12h-3.83v-10.12q0-1.46-.67-2.26-.66-.8-2.03-.8-.99 0-1.86.45t-1.64 1.23v11.5h-3.83v-15.9h2.34q.74 0 .98.69m24.15 10.5v-7.13q-.66-.79-1.42-1.12-.77-.32-1.65-.32-.87 0-1.57.32-.7.33-1.19.99-.5.66-.76 1.67-.27 1.02-.27 2.39 0 1.4.23 2.37.22.97.64 1.58t1.03.88q.6.27 1.34.27 1.2 0 2.03-.49.84-.5 1.59-1.41m0-18.32h3.82v23.03h-2.34q-.76 0-.96-.7l-.32-1.53q-.96 1.1-2.21 1.78t-2.91.68q-1.3 0-2.38-.54-1.09-.54-1.87-1.57-.79-1.03-1.21-2.55-.43-1.52-.43-3.48 0-1.76.48-3.28t1.38-2.64q.9-1.11 2.16-1.74 1.25-.63 2.82-.63 1.33 0 2.28.42.94.42 1.69 1.13zm10.63 13.25h7.22q0-.74-.21-1.4t-.63-1.16q-.41-.49-1.06-.78-.64-.29-1.49-.29-1.66 0-2.61.95-.96.94-1.22 2.68m9.76 2.31h-9.84q.09 1.22.44 2.11.34.9.89 1.48.56.58 1.33.87.77.28 1.7.28t1.6-.21q.68-.22 1.18-.49.5-.26.88-.48.38-.21.74-.21.48 0 .71.35l1.1 1.4q-.63.74-1.42 1.25-.79.5-1.65.8t-1.76.43q-.89.12-1.72.12-1.66 0-3.09-.55-1.42-.55-2.48-1.63-1.05-1.07-1.66-2.66-.6-1.59-.6-3.68 0-1.63.53-3.06.52-1.44 1.51-2.5.98-1.06 2.4-1.68t3.2-.62q1.5 0 2.77.48 1.28.48 2.19 1.4t1.43 2.27q.52 1.34.52 3.06 0 .86-.18 1.17-.19.3-.72.3m7.15-7.47.23 1.8q.75-1.43 1.77-2.24 1.02-.82 2.42-.82 1.1 0 1.76.48l-.24 2.87q-.08.28-.23.4-.15.11-.39.11t-.69-.08q-.46-.07-.9-.07-.63 0-1.13.18-.49.19-.89.54-.39.35-.7.84-.3.5-.56 1.13v9.8h-3.83v-15.9h2.25q.59 0 .82.21t.31.75m25.7 10.23v-7.13q-.65-.79-1.42-1.12-.77-.32-1.65-.32-.87 0-1.57.32-.69.33-1.19.99t-.76 1.67q-.26 1.02-.26 2.39 0 1.4.22 2.37.23.97.65 1.58.41.61 1.02.88.6.27 1.35.27 1.19 0 2.03-.49.83-.5 1.58-1.41m0-18.32h3.83v23.03h-2.34q-.76 0-.96-.7l-.33-1.53q-.96 1.1-2.21 1.78t-2.91.68q-1.3 0-2.38-.54-1.09-.54-1.87-1.57t-1.21-2.55-.43-3.48q0-1.76.49-3.28.48-1.52 1.37-2.64.9-1.11 2.16-1.74 1.25-.63 2.82-.63 1.33 0 2.28.42.94.42 1.69 1.13zm7.73 7.13h3.85v15.9h-3.85zm4.37-4.64q0 .5-.2.93-.2.44-.53.76-.34.33-.79.52-.44.19-.96.19-.49 0-.93-.19-.45-.19-.77-.52-.33-.32-.52-.76-.19-.43-.19-.93 0-.51.19-.96t.52-.77q.32-.33.77-.52.44-.2.93-.2.52 0 .96.2.45.19.79.52.33.32.53.77t.2.96m15.69-1.87v9.39h.98q.59 0 .97-.16.39-.17.67-.52l6.18-7.83q.39-.5.82-.69.42-.19 1.07-.19h3.6l-7.55 9.31q-.66.86-1.38 1.21.51.19.92.52.42.33.79.88l7.78 10.49h-3.67q-.75 0-1.11-.21-.37-.21-.62-.61l-6.33-8.28q-.3-.42-.69-.59-.38-.17-1.11-.17h-1.32v9.86h-4.17v-22.41zm19.5 12.63h7.22q0-.74-.21-1.4t-.63-1.16q-.41-.49-1.06-.78-.64-.29-1.49-.29-1.66 0-2.61.95-.96.94-1.22 2.68m9.76 2.31h-9.84q.09 1.22.44 2.11.34.9.89 1.48.56.58 1.33.87.77.28 1.7.28t1.6-.21q.68-.22 1.18-.49.5-.26.88-.48.38-.21.74-.21.48 0 .71.35l1.1 1.4q-.63.74-1.42 1.25-.79.5-1.65.8t-1.76.43q-.89.12-1.72.12-1.66 0-3.09-.55-1.42-.55-2.48-1.63-1.05-1.07-1.66-2.66-.6-1.59-.6-3.68 0-1.63.53-3.06.52-1.44 1.51-2.5.98-1.06 2.4-1.68t3.2-.62q1.5 0 2.77.48 1.28.48 2.19 1.4t1.43 2.27q.52 1.34.52 3.06 0 .86-.18 1.17-.19.3-.72.3m3.82-15.56h3.83v23.03h-3.83zm16.05 18.92v-2.68q-1.65.08-2.79.29-1.13.21-1.81.53-.68.33-.98.76-.29.44-.29.95 0 1.01.6 1.44.59.43 1.55.43 1.18 0 2.04-.42.86-.43 1.68-1.3m-8.09-8.35-.68-1.23q2.75-2.51 6.6-2.51 1.4 0 2.5.46t1.86 1.27 1.15 1.95q.4 1.13.4 2.48v10.04h-1.74q-.54 0-.83-.16-.3-.17-.47-.66l-.34-1.15q-.6.54-1.18.95-.57.42-1.19.69-.62.28-1.33.43-.7.15-1.55.15-1.01 0-1.86-.27-.86-.27-1.48-.82-.62-.54-.96-1.35-.34-.8-.34-1.87 0-.61.2-1.2.21-.6.66-1.14.46-.54 1.19-1.02.73-.49 1.79-.84 1.06-.36 2.47-.58 1.41-.23 3.22-.27v-.93q0-1.6-.68-2.37t-1.97-.77q-.93 0-1.54.22t-1.08.49q-.46.27-.84.49t-.84.22q-.41 0-.69-.21t-.45-.49m26-1.72-.87 1.38q-.16.25-.33.35t-.43.1q-.28 0-.6-.16-.31-.15-.73-.35-.42-.19-.96-.35-.53-.15-1.26-.15-1.13 0-1.77.48-.65.48-.65 1.25 0 .52.34.87.33.34.88.61.55.26 1.25.47.69.21 1.41.46.73.25 1.42.56.7.32 1.25.81t.88 1.17q.34.68.34 1.64 0 1.15-.41 2.12t-1.22 1.67q-.81.71-1.99 1.1-1.19.4-2.74.4-.82 0-1.6-.15t-1.51-.41q-.72-.26-1.33-.62t-1.08-.78l.89-1.45q.17-.27.4-.4.23-.14.59-.14t.67.2q.32.2.74.43t.98.44q.57.2 1.44.2.68 0 1.17-.17.49-.16.8-.42.32-.27.47-.61.15-.35.15-.73 0-.55-.34-.91-.33-.36-.88-.62t-1.26-.47q-.7-.21-1.44-.46-.73-.25-1.44-.58-.7-.33-1.25-.85-.55-.51-.89-1.25-.33-.75-.33-1.8 0-.98.39-1.86.38-.88 1.14-1.54.75-.66 1.87-1.06 1.13-.39 2.6-.39 1.64 0 2.99.54t2.25 1.43m26.84-8.23v3.42h-6.75v18.99h-4.17V217.4h-6.76v-3.42zm5.37 12.63h7.22q0-.74-.21-1.4t-.63-1.16q-.42-.49-1.06-.78t-1.5-.29q-1.65 0-2.61.95-.95.94-1.21 2.68m9.76 2.31h-9.84q.09 1.22.43 2.11.34.9.9 1.48t1.33.87q.76.28 1.69.28t1.61-.21q.67-.22 1.18-.49.5-.26.88-.48.38-.21.74-.21.48 0 .71.35l1.1 1.4q-.64.74-1.43 1.25-.79.5-1.65.8t-1.75.43q-.89.12-1.73.12-1.66 0-3.08-.55-1.43-.55-2.48-1.63-1.06-1.07-1.66-2.66t-.6-3.68q0-1.63.52-3.06.53-1.44 1.51-2.5.99-1.06 2.41-1.68 1.41-.62 3.2-.62 1.5 0 2.77.48t2.19 1.4q.91.92 1.43 2.27.52 1.34.52 3.06 0 .86-.19 1.17-.18.3-.71.3m3.77-15.56h3.83v13.19h.71q.39 0 .61-.1.23-.1.46-.41l3.95-4.89q.25-.32.55-.49t.78-.17h3.51l-4.95 5.9q-.52.7-1.14 1.07.32.23.58.54.25.31.49.67l5.3 7.72h-3.46q-.45 0-.78-.15-.32-.14-.54-.53l-4.06-6.03q-.22-.36-.45-.47t-.7-.11h-.86v7.29h-3.83zm19.88 7.82.27 1.26q.48-.48 1.01-.89.54-.41 1.13-.7.6-.29 1.28-.45.69-.16 1.49-.16 1.3 0 2.31.44t1.68 1.24q.68.8 1.03 1.91.34 1.11.34 2.44v10.12h-3.82v-10.12q0-1.46-.67-2.26t-2.03-.8q-.99 0-1.86.45t-1.64 1.23v11.5h-3.83v-15.9h2.34q.74 0 .97.69m14.3-.69h3.84v15.9h-3.84zm4.37-4.64q0 .5-.21.93-.2.44-.53.76-.33.33-.78.52t-.96.19q-.5 0-.94-.19t-.77-.52q-.32-.32-.52-.76-.19-.43-.19-.93 0-.51.19-.96.2-.45.52-.77.33-.33.77-.52.44-.2.94-.2.51 0 .96.2.45.19.78.52.33.32.53.77.21.45.21.96m3.38-2.49h3.82v13.19h.72q.38 0 .61-.1.22-.1.46-.41l3.95-4.89q.25-.32.55-.49t.78-.17h3.5l-4.94 5.9q-.53.7-1.15 1.07.33.23.58.54.26.31.49.67l5.3 7.72h-3.45q-.45 0-.78-.15-.32-.14-.54-.53l-4.06-6.03q-.22-.36-.45-.47t-.7-.11h-.87v7.29h-3.82z"/></svg>